<svg xmlns="http://www.w3.org/2000/svg" version="1.1" xmlns:xlink="http://www.w3.org/1999/xlink" xmlns:svgjs="http://svgjs.dev/svgjs" width="1500" height="1500" viewBox="0 0 1500 1500"><g transform="matrix(1,0,0,1,-0.21332335329316265,-0.21332335329350371)"><svg viewBox="0 0 334 334" data-background-color="#000000" preserveAspectRatio="xMidYMid meet" height="1500" width="1500" xmlns="http://www.w3.org/2000/svg" xmlns:xlink="http://www.w3.org/1999/xlink"><g id="tight-bounds" transform="matrix(1,0,0,1,0.04749999999998522,0.04750000000001364)"><svg viewBox="0 0 333.90454557049503 333.90454557049503" height="333.90454557049503" width="333.90454557049503"><rect width="333.905" height="333.905" fill="url(#44dd92b3-a223-4f20-a6da-24187b7dd964)" mask="url(#6edee58a-0247-4e22-adc3-d3d8509f3ca9)" data-fill-palette-color="tertiary"></rect><g><svg></svg></g><g><svg viewBox="0 0 333.90454557049503 333.90454557049503" height="333.90454557049503" width="333.90454557049503"><g><path d="M0 166.952c0-92.205 74.747-166.952 166.952-166.952 92.205 0 166.952 74.747 166.953 166.952 0 92.205-74.747 166.952-166.953 166.953-92.205 0-166.952-74.747-166.952-166.953zM166.952 316.63c82.665 0 149.677-67.013 149.678-149.678 0-82.665-67.013-149.677-149.678-149.677-82.665 0-149.677 67.013-149.677 149.677 0 82.665 67.013 149.677 149.677 149.678z" data-fill-palette-color="tertiary" fill="url(#44dd92b3-a223-4f20-a6da-24187b7dd964)" stroke="transparent"></path><ellipse rx="160.27418187383762" ry="160.27418187383762" cx="166.95227278524752" cy="166.95227278524752" fill="url(#44dd92b3-a223-4f20-a6da-24187b7dd964)" stroke="transparent" stroke-width="0" fill-opacity="1" data-fill-palette-color="tertiary"></ellipse></g><g transform="matrix(1,0,0,1,90.19206883636527,71.17305217166896)"><svg viewBox="0 0 153.5204078977645 191.55844122715712" height="191.55844122715712" width="153.5204078977645"><g><svg viewBox="0 0 153.5204078977645 191.55844122715712" height="191.55844122715712" width="153.5204078977645"><g><svg viewBox="0 0 153.5204078977645 191.55844122715712" height="191.55844122715712" width="153.5204078977645"><g><svg viewBox="0 0 153.5204078977645 191.55844122715712" height="191.55844122715712" width="153.5204078977645"><g id="textblocktransform"><svg viewBox="0 0 153.5204078977645 191.55844122715712" height="191.55844122715712" width="153.5204078977645" id="textblock"><g><svg viewBox="0 0 153.5204078977645 191.55844122715712" height="191.55844122715712" width="153.5204078977645"><g transform="matrix(1,0,0,1,0,0)"><svg width="153.5204078977645" viewBox="0.45 -35 28.05 35" height="191.55844122715712" data-palette-color="#000000"><path d="M0.45-29.95L0.45-35 28.5-35 28.5-29.95 17.4-29.95 17.4 0 11.5 0 11.5-29.95 0.45-29.95Z" opacity="1" transform="matrix(1,0,0,1,0,0)" fill="#000000" class="wordmark-text-0" data-fill-palette-color="quaternary" id="text-0"></path></svg></g></svg></g></svg></g></svg></g><g></g></svg></g></svg></g></svg></g></svg></g><defs></defs><mask id="6edee58a-0247-4e22-adc3-d3d8509f3ca9"><g id="SvgjsG4521"><svg viewBox="0 0 333.90454557049503 333.90454557049503" height="333.90454557049503" width="333.90454557049503"><g><svg></svg></g><g><svg viewBox="0 0 333.90454557049503 333.90454557049503" height="333.90454557049503" width="333.90454557049503"><g><path d="M0 166.952c0-92.205 74.747-166.952 166.952-166.952 92.205 0 166.952 74.747 166.953 166.952 0 92.205-74.747 166.952-166.953 166.953-92.205 0-166.952-74.747-166.952-166.953zM166.952 316.63c82.665 0 149.677-67.013 149.678-149.678 0-82.665-67.013-149.677-149.678-149.677-82.665 0-149.677 67.013-149.677 149.677 0 82.665 67.013 149.677 149.677 149.678z" fill="white" stroke="transparent"></path><ellipse rx="160.27418187383762" ry="160.27418187383762" cx="166.95227278524752" cy="166.95227278524752" fill="white" stroke="transparent" stroke-width="0" fill-opacity="1"></ellipse></g><g transform="matrix(1,0,0,1,90.19206883636527,71.17305217166896)"><svg viewBox="0 0 153.5204078977645 191.55844122715712" height="191.55844122715712" width="153.5204078977645"><g><svg viewBox="0 0 153.5204078977645 191.55844122715712" height="191.55844122715712" width="153.5204078977645"><g><svg viewBox="0 0 153.5204078977645 191.55844122715712" height="191.55844122715712" width="153.5204078977645"><g><svg viewBox="0 0 153.5204078977645 191.55844122715712" height="191.55844122715712" width="153.5204078977645"><g id="SvgjsG4520"><svg viewBox="0 0 153.5204078977645 191.55844122715712" height="191.55844122715712" width="153.5204078977645" id="SvgjsSvg4519"><g><svg viewBox="0 0 153.5204078977645 191.55844122715712" height="191.55844122715712" width="153.5204078977645"><g transform="matrix(1,0,0,1,0,0)"><svg width="153.5204078977645" viewBox="0.45 -35 28.05 35" height="191.55844122715712" data-palette-color="#000000"><path d="M0.45-29.95L0.45-35 28.5-35 28.5-29.95 17.4-29.95 17.4 0 11.5 0 11.5-29.95 0.45-29.95Z" opacity="1" transform="matrix(1,0,0,1,0,0)" fill="black" class="wordmark-text-0" id="SvgjsPath4518"></path></svg></g></svg></g></svg></g></svg></g><g></g></svg></g></svg></g></svg></g></svg></g><defs><mask></mask></defs></svg><rect width="333.90454557049503" height="333.90454557049503" fill="black" stroke="none" visibility="hidden"></rect></g></mask><linearGradient x1="0" x2="1" y1="0.5" y2="0.5" id="44dd92b3-a223-4f20-a6da-24187b7dd964"><stop stop-color="#f00b51" offset="0"></stop><stop stop-color="#730062" offset="1"></stop></linearGradient></svg><rect width="333.90454557049503" height="333.90454557049503" fill="none" stroke="none" visibility="hidden"></rect></g></svg></g></svg>