<svg xmlns="http://www.w3.org/2000/svg" version="1.1" xmlns:xlink="http://www.w3.org/1999/xlink" xmlns:svgjs="http://svgjs.dev/svgjs" width="1500" height="640" viewBox="0 0 1500 640"><g transform="matrix(1,0,0,1,-0.9084522071641459,-0.46424510396207097)"><svg viewBox="0 0 396 169" data-background-color="#0a1627" preserveAspectRatio="xMidYMid meet" height="640" width="1500" xmlns="http://www.w3.org/2000/svg" xmlns:xlink="http://www.w3.org/1999/xlink"><g id="tight-bounds" transform="matrix(1,0,0,1,0.24008861730862918,0.12258972276498525)"><svg viewBox="0 0 395.52 168.75482055447003" height="168.75482055447003" width="395.52"><g><svg viewBox="0 0 395.52 168.75482055447003" height="168.75482055447003" width="395.52"><g><svg viewBox="0 0 395.52 168.75482055447003" height="168.75482055447003" width="395.52"><g id="textblocktransform"><svg viewBox="0 0 395.52 168.75482055447003" height="168.75482055447003" width="395.52" id="textblock"><g><svg viewBox="0 0 395.52 128.33763953176748" height="128.33763953176748" width="395.52"><path d="M394.594 27.526C392.735 14.205 387.435 10.501 387.435 10.501 371.165-3.22 350.86-0.262 332.619 1.709 300.414 1.789 268.339 4.72 236.208 6.292 168.767 6.531 100.749 2.588 33.643 12.313 27.339 15.297-6.54 12.899 1.121 29.231 3.129 36.025 10.456 43.565 10.232 49.799 11.236 50.892 12.631 48.387 13.226 49.959 15.309 54.195 18.711 52.197 21.501 54.702 17.614 61.389 20.403 66.957 23.062 72.792 18.377 74.311 12.371 73.591 9.675 78.627 9.396 82.277 7.89 81.584 6.235 81.424 5.026 81.318 2.59 81.717 2.999 82.863 4.394 86.78-1.594 89.044 2.162 92.881-0.422 97.037 3.948 100.634 3.353 105.136 3.278 106.042 3.687 106.815 4.338 107.028 7.22 108.174 3.018 110.412 3.464 112.836 33.029 129.408 65.104 117.952 95.394 125.571 103.259 120.243 97.346 127.463 100.489 126.344 102.943 125.039 104.728 130.447 107.499 127.383 107.927 126.504 107.276 124.426 108.8 124.825 109.6 125.039 110.307 124.985 110.418 123.76 110.586 121.921 109.117 123.067 108.726 122.108 112.947 117.259 111.906 128.795 115.866 128.316 115.68 126.904 114.528 124.879 116.889 125.145 119.232 123.12 119.306 121.442 121.389 125.998 121.463 126.984 121.835 127.676 122.43 128.156 128.938 123.2 135.409 129.914 142.233 127.676 146.417 125.225 150.433 129.008 154.672 128.076 156.16 127.33 157.666 125.998 159.098 128.236 176.632 128.715 195.319 126.717 211.943 128.316 256.364 125.332 303.836 129.541 350.674 125.598 361.719 124.079 373.192 121.921 383.958 120.19 383.958 120.19 392.679 115.447 392.679 94.133S394.538 75.483 394.817 58.512C395.096 41.54 396.398 40.847 394.538 27.526Z" opacity="1" fill="#fe0039" data-fill-palette-color="tertiary"></path><g transform="matrix(1,0,0,1,55.76832,26.068561146666667)"><svg width="283.98335999999995" viewBox="0.45 -37.1 140.49 37.7" height="76.20051723843416" data-palette-color="#0a1627"><path d="M6.25 0.2L6.65-1.95Q9.15-2.15 10.1-2.58 11.05-3 11.35-4.13 11.65-5.25 11.65-8.1L11.65-8.1 11.65-29.9Q7.4-29.75 5.88-29.43 4.35-29.1 3.8-27.98 3.25-26.85 2.8-23.6L2.8-23.6 0.45-23.4Q1.05-28.15 1.2-32.05L1.2-32.05 1.65-32.45 5.8-31.9 21.3-31.9 25.55-32.45 26-32.05Q26.15-27.95 26.75-23.6L26.75-23.6 24.4-23.4Q23.85-26.7 23.3-27.85 22.75-29 21.35-29.35 19.95-29.7 15.95-29.9L15.95-29.9Q15.65-26.9 15.4-19.3 15.15-11.7 15.15-5.6L15.15-5.6Q15.15-3.75 15.8-2.98 16.45-2.2 18-2.2L18-2.2Q19.5-2.2 20.75-2.35L20.75-2.35 20.9-2.15 20.45 0.15 18.8 0.1 13.1 0Q10.35 0 6.25 0.2L6.25 0.2ZM30.3-17.35Q30.3-20.05 28.45-20.05L28.45-20.05Q28.1-20.05 27.7-19.98 27.3-19.9 27.2-19.85L27.2-19.85 27.4-21.7Q29.35-22 31.6-22.53 33.85-23.05 34.55-23.2L34.55-23.2 34.85-22.6Q34.35-21.3 33.95-16.7 33.55-12.1 33.55-7.75L33.55-7.75Q33.55-2.85 37.55-2.85L37.55-2.85Q39.05-2.85 40.35-3.58 41.65-4.3 43.6-5.7L43.6-5.7 43.6-17.3Q43.6-18.8 43.05-19.4 42.5-20 41.1-20L41.1-20 39.9-19.95 40.1-21.75Q42.3-22.05 44.7-22.55 47.1-23.05 47.8-23.2L47.8-23.2 48.1-22.6Q47.65-21.45 47.32-16.35 47-11.25 47-5.25L47-5.25Q47-4.15 47.55-3.55 48.1-2.95 49.05-2.95L49.05-2.95Q49.75-2.95 50.42-3.23 51.1-3.5 51.52-3.8 51.95-4.1 52.05-4.2L52.05-4.2 52.75-3.4Q52.55-3.1 51.82-2.15 51.1-1.2 50.12-0.3 49.15 0.6 48.4 0.6L48.4 0.6Q44.35 0.6 43.95-3.45L43.95-3.45 43.7-3.55Q41.3-1.7 39.37-0.55 37.45 0.6 36.75 0.6L36.75 0.6Q33.55 0.6 31.82-0.9 30.1-2.4 30.1-5.2L30.1-5.2 30.3-17.35ZM61.39 0.6Q59.8 0.6 58.47 0.38 57.14 0.15 56.39-0.1 55.64-0.35 55.45-0.45L55.45-0.45 55.3-0.8Q55.45-1.55 55.64-3.9 55.84-6.25 55.89-7.5L55.89-7.5 57.64-7.75Q57.64-4.45 58.74-3.1 59.84-1.75 62.49-1.75L62.49-1.75Q64.39-1.75 65.69-2.6 67-3.45 67-4.7L67-4.7Q67-5.95 65.82-6.98 64.64-8 61.2-9.85L61.2-9.85Q58.34-11.3 57.05-12.8 55.74-14.3 55.74-16.1L55.74-16.1Q55.74-18.1 56.95-19.73 58.14-21.35 60.24-22.28 62.34-23.2 64.94-23.2L64.94-23.2Q66.14-23.2 67.25-23.03 68.34-22.85 69.05-22.65 69.75-22.45 69.94-22.4L69.94-22.4 70.05-22.15Q69.94-21.65 69.59-19.88 69.25-18.1 69.09-16.05L69.09-16.05 67.25-15.9Q67.25-16.05 67.3-16.5 67.34-16.95 67.34-17.35L67.34-17.35Q67.34-19.15 66.37-19.98 65.39-20.8 63.24-20.8L63.24-20.8Q61.55-20.8 60.37-20 59.2-19.2 59.2-18.05L59.2-18.05Q59.2-16.85 60.22-15.8 61.24-14.75 63.55-13.55L63.55-13.55Q67.59-11.4 69.07-9.93 70.55-8.45 70.55-6.55L70.55-6.55Q70.55-4.65 69.3-3 68.05-1.35 65.92-0.38 63.8 0.6 61.39 0.6L61.39 0.6ZM74.69-1.95Q76.14-2.1 76.72-2.7 77.29-3.3 77.29-4.7L77.29-4.7 77.29-31.3Q77.29-32.65 76.84-33.27 76.39-33.9 75.44-33.9L75.44-33.9 74.39-33.9 74.19-34.05 74.39-35.65Q76.09-35.85 78.24-36.27 80.39-36.7 81.79-37.1L81.79-37.1 82.09-36.45Q81.74-35.9 81.42-31.1 81.09-26.3 80.89-19.3L80.89-19.3Q86.59-23.2 88.39-23.2L88.39-23.2Q91.64-23.2 93.44-21.5 95.24-19.8 95.24-16.75L95.24-16.75Q95.24-15.75 94.89-12.15L94.89-12.15Q94.44-6.3 94.44-4.9L94.44-4.9Q94.44-3.45 94.84-2.78 95.24-2.1 96.19-2.1L96.19-2.1 97.94-2.2 98.04-2 97.64 0.15Q94.34 0 93.19 0L93.19 0Q91.19 0 88.04 0.6L88.04 0.6 88.24-1.45Q89.74-1.85 90.39-2.63 91.04-3.4 91.04-4.7L91.04-4.7 91.34-14.6Q91.34-17.1 90.27-18.45 89.19-19.8 87.19-19.8L87.19-19.8Q85.94-19.8 84.12-19 82.29-18.2 80.84-17.05L80.84-17.05Q80.69-11.45 80.69-4.9L80.69-4.9Q80.69-3.35 81.09-2.73 81.49-2.1 82.49-2.1L82.49-2.1 84.24-2.2 84.34-2 83.89 0.15Q80.44 0 79.34 0L79.34 0Q77.19 0 74.39 0.1L74.39 0.1 74.69-1.95ZM118.24 0.6Q114.19 0.6 113.79-3.45L113.79-3.45 113.59-3.5Q111.79-1.7 110.31-0.65 108.84 0.4 108.09 0.4L108.09 0.4Q105.29 0.4 103.49-1.35 101.69-3.1 101.69-5.8L101.69-5.8Q101.69-7.25 102.42-8.35 103.14-9.45 104.34-9.8L104.34-9.8 113.84-12.4 113.89-14.6Q113.89-17.1 112.74-18.5 111.59-19.9 109.49-19.9L109.49-19.9Q108.09-19.9 106.54-19.25 104.99-18.6 103.49-17.4L103.49-17.4 103.24-17.55 102.64-19.7Q104.99-21.05 107.36-22.13 109.74-23.2 110.79-23.2L110.79-23.2Q114.04-23.2 115.89-21.5 117.74-19.8 117.74-16.75L117.74-16.75Q117.74-15.65 117.39-12.25L117.39-12.25Q116.84-6.75 116.84-5.25L116.84-5.25Q116.84-4.15 117.39-3.55 117.94-2.95 118.89-2.95L118.89-2.95Q119.69-2.95 120.54-3.33 121.39-3.7 121.89-4.2L121.89-4.2 122.59-3.4Q121.84-2.15 120.67-0.98 119.49 0.2 118.24 0.6L118.24 0.6ZM108.94-3Q109.89-3 111.17-3.68 112.44-4.35 113.49-5.4L113.49-5.4 113.74-10.5 106.94-8.45Q105.49-8 105.49-6.35L105.49-6.35Q105.49-4.9 106.47-3.95 107.44-3 108.94-3L108.94-3ZM125.89-1.8Q127.39-1.95 127.89-2.78 128.39-3.6 128.39-5.95L128.39-5.95 128.39-16.95Q128.39-18.6 127.94-19.3 127.49-20 126.49-20L126.49-20Q126.09-20 125.81-19.95 125.54-19.9 125.44-19.85L125.44-19.85 125.19-20.2 125.34-21.75Q127.24-22.1 129.36-22.6 131.49-23.1 132.09-23.25L132.09-23.25 132.44-22.95Q132.34-22.5 132.14-20.88 131.94-19.25 131.99-17.8L131.99-17.8 132.19-17.65Q133.69-20 135.71-21.5 137.74-23 139.24-23L139.24-23Q139.94-23 140.31-22.93 140.69-22.85 140.79-22.8L140.79-22.8 140.94-22.6Q140.84-21.9 140.51-19.63 140.19-17.35 140.14-15.45L140.14-15.45 138.19-15.3Q138.19-17.35 137.91-18.03 137.64-18.7 136.84-18.7L136.84-18.7Q135.74-18.7 134.49-17.78 133.24-16.85 132.19-15.3L132.19-15.3Q132.14-13.85 131.99-10.5 131.84-7.15 131.79-5.1L131.79-5.1Q131.79-3.4 132.29-2.8 132.79-2.2 134.19-2.2L134.19-2.2Q134.84-2.2 135.49-2.25 136.14-2.3 136.39-2.3L136.39-2.3 136.44-2.1 135.99 0.1Q135.49 0.1 133.99 0.05 132.49 0 130.89 0L130.89 0Q129.04 0 127.54 0.08 126.04 0.15 125.64 0.2L125.64 0.2 125.89-1.8Z" opacity="1" transform="matrix(1,0,0,1,0,0)" fill="#0a1627" class="wordmark-text-0" data-fill-palette-color="quaternary" id="text-0"></path></svg></g></svg></g><g transform="matrix(1,0,0,1,0,146.32675283934807)"><svg viewBox="0 0 232.209792 22.428067715121955" height="22.428067715121955" width="232.209792"><g transform="matrix(1,0,0,1,0,0)"><svg width="232.209792" viewBox="0.7 -38.9 409.97 39.6" height="22.428067715121955" data-palette-color="#c1c1c1"><path d="M38.3-38.9L38.3-26.8 29.7-26.8 29.7-30.7 26.5-30.7 26.5-8.2 30-8.2 30 0 9 0 9-8.2 12.5-8.2 12.5-30.7 9.3-30.7 9.3-26.8 0.7-26.8 0.7-38.9 38.3-38.9ZM51.3 0.7Q44.2 0.7 40.2-3.03 36.2-6.75 36.2-13.9L36.2-13.9Q36.2-21.05 40.2-24.78 44.2-28.5 51.3-28.5L51.3-28.5Q58.35-28.5 61.47-24.83 64.6-21.15 64.6-15.7L64.6-15.7 64.6-12.1 48.4-12.1 48.4-11.8Q48.4-9.95 49.5-9.08 50.6-8.2 53.15-8.2L53.15-8.2Q56.2-8.2 58.95-8.65 61.7-9.1 63.75-9.8L63.75-9.8 63.75-1.8Q62-0.85 58.62-0.08 55.25 0.7 51.3 0.7L51.3 0.7ZM48.4-17.6L54.2-17.6 54.2-18.2Q54.2-19.9 53.47-20.65 52.75-21.4 51.3-21.4L51.3-21.4Q49.85-21.4 49.12-20.63 48.4-19.85 48.4-18.2L48.4-18.2 48.4-17.6ZM81.05 0.7Q73.9 0.7 69.9-3.03 65.9-6.75 65.9-13.9L65.9-13.9Q65.9-21.05 69.9-24.78 73.9-28.5 81-28.5L81-28.5Q84.45-28.5 87.6-27.55 90.75-26.6 92.5-25.4L92.5-25.4 92.5-15.5 83.9-15.5 83.9-16.4Q83.9-18.05 83.2-18.82 82.5-19.6 81-19.6L81-19.6Q78.1-19.6 78.1-16.4L78.1-16.4 78.1-12.1Q78.1-8.2 82.55-8.2L82.55-8.2Q86.7-8.2 92.2-9.1L92.2-9.1 92.2-1.25Q90.5-0.5 87.42 0.1 84.35 0.7 81.05 0.7L81.05 0.7ZM125.19-8.2L127.39-8.2 127.39 0 111.59 0 111.59-8.2 113.69-8.2 113.69-16.4Q113.69-18.05 112.99-18.82 112.29-19.6 110.89-19.6L110.89-19.6Q107.89-19.6 107.89-16.4L107.89-16.4 107.89-8.2 109.99-8.2 109.99 0 94.19 0 94.19-8.2 96.39-8.2 96.39-30.7 94.19-30.7 94.19-38.9 107.89-38.9 107.89-23.9Q109.74-26.2 111.89-27.35 114.04-28.5 116.89-28.5L116.89-28.5Q121.04-28.5 123.12-25.9 125.19-23.3 125.19-18.75L125.19-18.75 125.19-8.2ZM172.34-38.9L180.79-8.2 182.79-8.2 182.79 0 163.19 0 163.19-8.2 166.19-8.2 165.39-12.2 158.59-12.2 157.79-8.2 160.79-8.2 160.79 0 143.69 0 143.69-8.2 145.69-8.2 154.14-38.9 172.34-38.9ZM161.74-27.45L159.69-17.5 164.29-17.5 162.24-27.45 161.74-27.45ZM200.19 0.05L184.29 0.05 184.29-8.2 186.49-8.2 186.49-30.7 184.29-30.7 184.29-38.9 197.99-38.9 197.99-8.2 200.19-8.2 200.19 0.05ZM216.73 0.7Q209.58 0.7 205.58-3.03 201.58-6.75 201.58-13.9L201.58-13.9Q201.58-21.05 205.58-24.78 209.58-28.5 216.68-28.5L216.68-28.5Q220.13-28.5 223.28-27.55 226.43-26.6 228.18-25.4L228.18-25.4 228.18-15.5 219.58-15.5 219.58-16.4Q219.58-18.05 218.88-18.82 218.18-19.6 216.68-19.6L216.68-19.6Q213.78-19.6 213.78-16.4L213.78-16.4 213.78-12.1Q213.78-8.2 218.23-8.2L218.23-8.2Q222.38-8.2 227.88-9.1L227.88-9.1 227.88-1.25Q226.18-0.5 223.11 0.1 220.03 0.7 216.73 0.7L216.73 0.7ZM260.88-8.2L263.08-8.2 263.08 0 247.28 0 247.28-8.2 249.38-8.2 249.38-16.4Q249.38-18.05 248.68-18.82 247.98-19.6 246.58-19.6L246.58-19.6Q243.58-19.6 243.58-16.4L243.58-16.4 243.58-8.2 245.68-8.2 245.68 0 229.88 0 229.88-8.2 232.08-8.2 232.08-30.7 229.88-30.7 229.88-38.9 243.58-38.9 243.58-23.9Q245.43-26.2 247.58-27.35 249.73-28.5 252.58-28.5L252.58-28.5Q256.73-28.5 258.81-25.9 260.88-23.3 260.88-18.75L260.88-18.75 260.88-8.2ZM279.58 0.7Q272.48 0.7 268.48-3.03 264.48-6.75 264.48-13.9L264.48-13.9Q264.48-21.05 268.48-24.78 272.48-28.5 279.58-28.5L279.58-28.5Q286.63-28.5 289.75-24.83 292.88-21.15 292.88-15.7L292.88-15.7 292.88-12.1 276.68-12.1 276.68-11.8Q276.68-9.95 277.78-9.08 278.88-8.2 281.43-8.2L281.43-8.2Q284.48-8.2 287.23-8.65 289.98-9.1 292.03-9.8L292.03-9.8 292.03-1.8Q290.28-0.85 286.9-0.08 283.53 0.7 279.58 0.7L279.58 0.7ZM276.68-17.6L282.48-17.6 282.48-18.2Q282.48-19.9 281.75-20.65 281.03-21.4 279.58-21.4L279.58-21.4Q278.13-21.4 277.4-20.63 276.68-19.85 276.68-18.2L276.68-18.2 276.68-17.6ZM342.68-8.2L344.88-8.2 344.88 0 329.08 0 329.08-8.2 331.18-8.2 331.18-16.4Q331.18-18.05 330.48-18.82 329.78-19.6 328.38-19.6L328.38-19.6Q325.38-19.6 325.38-16.4L325.38-16.4 325.38-8.2 327.48-8.2 327.48 0 311.78 0 311.78-8.2 313.88-8.2 313.88-16.4Q313.88-18.05 313.18-18.82 312.48-19.6 311.08-19.6L311.08-19.6Q308.08-19.6 308.08-16.4L308.08-16.4 308.08-8.2 310.18-8.2 310.18 0 294.38 0 294.38-8.2 296.58-8.2 296.58-19.6 294.38-19.6 294.38-27.8 308.08-27.8 308.08-23.9Q311.68-28.5 317.08-28.5L317.08-28.5Q320.13-28.5 322.05-27.08 323.98-25.65 324.78-23.05L324.78-23.05Q326.58-25.65 328.9-27.05 331.23-28.45 334.38-28.45L334.38-28.45Q338.53-28.45 340.6-25.85 342.68-23.25 342.68-18.7L342.68-18.7 342.68-8.2ZM359.07-30.55L348.87-30.55 348.87-38.9 359.07-38.9 359.07-30.55ZM362.37 0L346.47 0 346.47-8.2 348.67-8.2 348.67-19.6 346.47-19.6 346.47-27.8 360.17-27.8 360.17-8.2 362.37-8.2 362.37 0ZM375.92 0.7Q369.62 0.7 363.77-1.3L363.77-1.3 363.77-8.7 371.87-8.7 371.87-8.2Q371.87-5.8 374.92-5.8L374.92-5.8Q377.62-5.8 377.62-7.65L377.62-7.65Q377.62-8.65 376.85-9.15 376.07-9.65 374.12-10L374.12-10 371.62-10.45Q363.77-11.85 363.77-19.35L363.77-19.35Q363.77-23.7 367.07-26.1 370.37-28.5 375.97-28.5L375.97-28.5Q382.22-28.5 386.52-26.4L386.52-26.4 386.52-19.45 378.92-19.45 378.92-19.95Q378.92-20.95 378.25-21.48 377.57-22 376.27-22L376.27-22Q373.77-22 373.77-20.4L373.77-20.4Q373.77-19.55 374.47-19.1 375.17-18.65 377.02-18.25L377.02-18.25 379.87-17.7Q384.32-16.85 386.22-14.55 388.12-12.25 388.12-8.65L388.12-8.65Q388.12-4.1 384.95-1.7 381.77 0.7 375.92 0.7L375.92 0.7ZM402.07 0.7Q396.77 0.7 394.09-1.88 391.42-4.45 391.42-10.55L391.42-10.55 391.42-19.6 389.22-19.6 389.22-27.8Q391.12-27.8 392.07-28.78 393.02-29.75 393.02-31.45L393.02-31.45 393.02-33.7 403.62-33.7 403.62-27.8 410.37-27.8 410.37-19.6 403.62-19.6 403.62-11.4Q403.62-9.75 404.34-8.97 405.07-8.2 406.52-8.2L406.52-8.2Q408.42-8.2 410.67-8.65L410.67-8.65 410.67-0.8Q409.27-0.25 406.89 0.23 404.52 0.7 402.07 0.7L402.07 0.7Z" opacity="1" transform="matrix(1,0,0,1,0,0)" fill="#c1c1c1" class="slogan-text-1" data-fill-palette-color="secondary" id="text-1"></path></svg></g></svg></g></svg></g></svg></g></svg></g><defs></defs></svg><rect width="395.52" height="168.75482055447003" fill="none" stroke="none" visibility="hidden"></rect></g></svg></g></svg>